<?xml version="1.0" encoding="UTF-8" standalone="no"?>
<!-- Created with Inkscape (http://www.inkscape.org/) -->

<svg
   version="1.1"
   id="svg1"
   width="392"
   height="392"
   viewBox="0 0 392 392"
   sodipodi:docname="CamicLogo.svg"
   inkscape:version="1.3 (0e150ed, 2023-07-21)"
   xmlns:inkscape="http://www.inkscape.org/namespaces/inkscape"
   xmlns:sodipodi="http://sodipodi.sourceforge.net/DTD/sodipodi-0.dtd"
   xmlns="http://www.w3.org/2000/svg"
   xmlns:svg="http://www.w3.org/2000/svg">
  <defs
     id="defs1" />
  <sodipodi:namedview
     id="namedview1"
     pagecolor="#ffffff"
     bordercolor="#000000"
     borderopacity="0.25"
     inkscape:showpageshadow="2"
     inkscape:pageopacity="0.0"
     inkscape:pagecheckerboard="0"
     inkscape:deskcolor="#d1d1d1"
     showgrid="false"
     inkscape:zoom="0.64364654"
     inkscape:cx="600.48485"
     inkscape:cy="466.87115"
     inkscape:window-width="1512"
     inkscape:window-height="854"
     inkscape:window-x="0"
     inkscape:window-y="496"
     inkscape:window-maximized="0"
     inkscape:current-layer="layer1" />
  <g
     inkscape:groupmode="layer"
     id="layer1"
     inkscape:label="Vector"
     style="display:inline">
    <path
       style="fill:currentColor"
       d="m 235.37858,200.06453 48.41567,-17.02896 C 246.56105,133.47258 219.56516,83.165139 201.98846,21.427389 l -19.03237,8.013628 z"
       id="path1"
       sodipodi:nodetypes="ccccc" />
    <path
       style="fill:currentColor"
       d="m 156.28676,116.50371 c 0,0 14.69165,-11.68654 0,0 z"
       id="path2" />
    <path
       style="fill:currentcolor"
       d="m 155.95286,116.83761 c 0,0 5.34242,-6.01022 0,0 z"
       id="path3" />
    <path
       style="fill:currentcolor;stroke-width:1.09145"
       d="m 139.38922,122.8447 c 15.23488,-7.61623 35.55245,-11.52666 49.73998,-13.86767 l -5.41955,-17.127845 c -19.13718,3.23649 -39.75853,8.958985 -54.66219,16.637765 z"
       id="path4"
       sodipodi:nodetypes="ccccc" />
    <path
       style="fill:currentcolor;stroke-width:1.09145"
       d="m 122.16662,133.77573 c -23.015532,15.981 -35.642057,37.20602 -39.521215,57.6266 l -23.492631,-4.34071 c 8.128925,-25.58183 23.897012,-50.05419 51.164286,-68.27094 z"
       id="path5"
       sodipodi:nodetypes="ccccc" />
    <path
       style="fill:currentcolor;stroke-width:1.09145"
       d="m 79.122739,208.94401 c -1.547813,23.32001 -2.010619,45.68546 13.242816,64.59801 L 71.955844,284.72771 C 57.431731,260.5187 51.196077,234.95396 55.733377,204.52227 Z"
       id="path6"
       sodipodi:nodetypes="ccccc" />
    <path
       style="fill:currentcolor;stroke-width:1.09145"
       d="m 107.61472,290.35656 c 18.94063,20.51975 41.85149,37.02418 68.16374,42.40749 l -4.70291,18.87034 C 141.91129,341.51155 109.06814,329.00813 87.063288,303.43108 Z"
       id="path7"
       sodipodi:nodetypes="ccccc" />
    <path
       style="fill:currentcolor;stroke-width:1.38034"
       d="m 199.36286,333.54662 -1.94994,19.73107 132.52921,-0.93353 -4.77015,-29.85319 z"
       id="path10"
       sodipodi:nodetypes="ccccc" />
  </g>
  <g
     inkscape:groupmode="layer"
     id="layer2"
     inkscape:label="NotLetter"
     style="display:inline" />
</svg>
